#!OML:ASF I:\Actors\actors\Patient Classification 2\Patient 1\Session 1\actor1.ASF
:FULLY-SPECIFIED
:DEGREES
237
root -0.823322 18.6331 4.31619 0.455241 -2.58976 -3.894
lowerback 20.186 1.30091 -0.124293
upperback 3.24956 1.71554 0.531251
thorax -7.78114 0.8309 0.193233
lowerneck -2.30699 -2.72125 2.3608
upperneck -2.43578 -3.65633 1.66425
head -0.371849 -1.85385 0.109322
rclavicle 1.00386e-014 5.56597e-015
rhumerus 17.0345 9.53725 -34.771
rradius 135.826
rwrist -27.8736
rhand -10.6754 -41.3736
rfingers 7.12502
rthumb 15.3332 -70.7851
lclavicle 1.00386e-014 5.56597e-015
lhumerus -43.9541 -6.71344 84.602
lradius 59.3362
lwrist 6.60982
lhand -12.7284 -28.6213
lfingers 7.12502
lthumb 13.355 0.93075
rfemur 0 0 0
rtibia 0
rfoot 0 0
rtoes 0
lfemur -12.1889 -0.876172 -9.15662
ltibia 28.0532
lfoot -19.2091 9.77368
ltoes -56.0913
238
root -0.824529 18.6319 4.33055 0.474571 -2.60259 -3.88878
lowerback 19.9709 1.28856 -0.20305
upperback 3.3389 1.6873 0.591645
thorax -7.57236 0.820696 0.316232
lowerneck -2.96715 -2.73723 2.24608
upperneck -2.53433 -3.69489 1.60667
head -0.29451 -1.8706 0.101211
rclavicle 4.02539e-014 -4.77083e-015
rhumerus 17.5918 8.97583 -34.5497
rradius 135.759
rwrist -27.7734
rhand -10.6183 -41.4956
rfingers 7.12502
rthumb 15.3881 -70.9029
lclavicle 4.02539e-014 -4.77083e-015
lhumerus -43.6684 -6.46082 84.6284
lradius 59.4566
lwrist 6.09386
lhand -12.655 -27.5217
lfingers 7.12502
lthumb 13.4257 2.02565
rfemur 0 0 0
rtibia 0
rfoot 0 0
rtoes 0
lfemur -12.1661 -0.810385 -9.16137
ltibia 28.0576
lfoot -19.1996 9.70627
ltoes -56.1385
239
root -0.825192 18.632 4.34569 0.485888 -2.62047 -3.84636
lowerback 19.8678 1.29966 -0.209526
upperback 3.20843 1.69901 0.557761
thorax -7.65826 0.826411 0.280746
lowerneck -2.93669 -2.82315 2.22281
upperneck -2.7881 -3.80424 1.54313
head -0.377076 -1.92868 0.0883314
rclavicle -2.49475e-014 7.15625e-015
rhumerus 17.6647 8.64944 -34.4824
rradius 135.678
rwrist -27.6069
rhand -10.6016 -41.4114
rfingers 7.12502
rthumb 15.4042 -70.8175
lclavicle -2.49475e-014 7.15625e-015
lhumerus -43.8597 -6.50762 84.6395
lradius 59.2335
lwrist 6.37962
lhand -12.7601 -28.4271
lfingers 7.12502
lthumb 13.3245 1.12693
rfemur 0 0 0
rtibia 0
rfoot 0 0
rtoes 0
lfemur -12.1335 -0.740108 -9.21855
ltibia 28.0686
lfoot -19.1792 9.7181
ltoes -56.3563
240
root -0.825075 18.6332 4.36043 0.488699 -2.63278 -3.83553
lowerback 20.0418 1.32242 -0.0445294
upperback 2.89967 1.7571 0.449725
thorax -8.08077 0.847454 0.047023
lowerneck -2.8376 -2.9394 2.42942
upperneck -2.89962 -3.96297 1.30578
head -0.436577 -2.01136 -0.0137411
rclavicle 1.09332e-015 5.96354e-015
rhumerus 17.397 8.53783 -34.4877
rradius 135.707
rwrist -27.6042
rhand -10.8467 -41.4932
rfingers 7.12502
rthumb 15.1682 -70.9173
lclavicle 1.09332e-015 5.96354e-015
lhumerus -44.322 -6.80565 84.6371
lradius 59.2577
lwrist 6.44314
lhand -12.7399 -28.3689
lfingers 7.12502
lthumb 13.3439 1.18379
rfemur 0 0 0
rtibia 0
rfoot 0 0
rtoes 0
lfemur -12.0849 -0.758115 -9.24271
ltibia 28.0841
lfoot -19.2168 9.79372
ltoes -56.5021
241
root -0.825428 18.6332 4.3746 0.500722 -2.61682 -3.86931
lowerback 19.7815 1.31438 -0.161361
upperback 2.84495 1.73094 0.543976
thorax -8.00643 0.840479 0.227205
lowerneck -2.5142 -2.89416 2.44056
upperneck -3.41616 -3.88655 1.19195
head -0.648663 -1.98071 -0.0396138
rclavicle -4.07509e-015 -7.55382e-015
rhumerus 17.7014 8.39381 -34.2702
rradius 135.781
rwrist -27.8604
rhand -11.1347 -41.6172
rfingers 7.12502
rthumb 14.8907 -71.062
lclavicle -4.07509e-015 -7.55382e-015
lhumerus -44.4401 -6.60597 84.6866
lradius 59.1767
lwrist 6.44222
lhand -12.7332 -28.4806
lfingers 7.12502
lthumb 13.3504 1.07167
rfemur 0 0 0
rtibia 0
rfoot 0 0
rtoes 0
lfemur -12.0533 -0.767648 -9.2055
ltibia 28.0943
lfoot -19.2668 9.76724
ltoes -56.5304
242
root -0.826097 18.6334 4.38922 0.546978 -2.59201 -3.89689
lowerback 19.6327 1.29871 -0.132644
upperback 2.71858 1.71845 0.549885
thorax -8.06304 0.834124 0.22199
lowerneck -2.23064 -2.84296 2.17657
upperneck -3.90788 -3.78862 1.54719
head -0.83312 -1.93812 0.119509
rclavicle 2.99171e-014 -1.11319e-014
rhumerus 17.8291 8.22832 -34.0986
rradius 135.856
rwrist -28.1584
rhand -11.642 -41.4751
rfingers 7.12502
rthumb 14.402 -70.9555
lclavicle 2.99171e-014 -1.11319e-014
lhumerus -44.6046 -6.51164 84.656
lradius 59.1019
lwrist 6.39964
lhand -12.7281 -28.5803
lfingers 7.12502
lthumb 13.3553 0.97164
rfemur 0 0 0
rtibia 0
rfoot 0 0
rtoes 0
lfemur -12.0576 -0.710943 -9.1703
ltibia 28.0946
lfoot -19.2922 9.6925
ltoes -56.5188
243
root -0.82585 18.6346 4.40493 0.576547 -2.59368 -3.92118
lowerback 19.4959 1.30372 -0.101908
upperback 2.6423 1.7337 0.564924
thorax -8.0719 0.841109 0.218648
lowerneck -2.222 -2.82299 1.93446
upperneck -4.26256 -3.74465 1.81252
head -0.934113 -1.91959 0.242882
rclavicle 1.98785e-016 -9.14409e-015
rhumerus 18.0149 7.9924 -33.9241
rradius 135.857
rwrist -28.3289
rhand -12.2231 -41.2986
rfingers 7.12502
rthumb 13.842 -70.818
lclavicle 1.98785e-016 -9.14409e-015
lhumerus -44.6571 -6.42323 84.6542
lradius 59.0218
lwrist 6.30319
lhand -12.714 -28.6054
lfingers 7.12502
lthumb 13.3689 0.945654
rfemur 0 0 0
rtibia 0
rfoot 0 0
rtoes 0
lfemur -12.0209 -0.707539 -9.14757
ltibia 28.0802
lfoot -19.3331 9.70461
ltoes -56.443
244
root -0.825748 18.6356 4.42054 0.612515 -2.60566 -3.90312
lowerback 19.3626 1.32046 -0.140598
upperback 2.53746 1.74937 0.572172
thorax -8.11547 0.850249 0.245871
lowerneck -2.26147 -2.83407 1.91617
upperneck -4.48836 -3.75668 1.79155
head -0.997688 -1.92784 0.241453
rclavicle 1.68967e-015 -1.78906e-014
rhumerus 18.1578 7.78109 -33.8062
rradius 135.886
rwrist -28.4347
rhand -12.3892 -41.4044
rfingers 7.12502
rthumb 13.6819 -70.9347
lclavicle 1.68967e-015 -1.78906e-014
lhumerus -44.7599 -6.3297 84.6573
lradius 58.9221
lwrist 6.14681
lhand -12.7157 -28.6799
lfingers 7.12502
lthumb 13.3672 0.871316
rfemur 0 0 0
rtibia 0
rfoot 0 0
rtoes 0
lfemur -11.9866 -0.750225 -9.17531
ltibia 28.0526
lfoot -19.3966 9.75795
ltoes -56.3821
245
root -0.825954 18.6364 4.43542 0.663547 -2.612 -3.79253
lowerback 19.2485 1.33314 -0.275575
upperback 2.39672 1.73651 0.539895
thorax -8.20984 0.848116 0.291699
lowerneck -2.27882 -2.84434 1.95648
upperneck -4.65155 -3.76959 1.75078
head -1.04719 -1.93649 0.22417
rclavicle 1.04362e-014 -1.31198e-014
rhumerus 18.2594 7.53722 -33.7524
rradius 135.904
rwrist -28.4293
rhand -12.0845 -41.4361
rfingers 7.12502
rthumb 13.9756 -70.9463
lclavicle 1.04362e-014 -1.31198e-014
lhumerus -44.9213 -6.21753 84.6273
lradius 58.8386
lwrist 6.02867
lhand -12.7002 -28.7056
lfingers 7.12502
lthumb 13.3822 0.844588
rfemur 0 0 0
rtibia 0
rfoot 0 0
rtoes 0
lfemur -11.9546 -0.763429 -9.30609
ltibia 27.974
lfoot -19.4336 9.79747
ltoes -56.4575
246
root -0.82728 18.6362 4.45059 0.673688 -2.63766 -3.76322
lowerback 19.2021 1.34138 -0.319493
upperback 2.26665 1.73737 0.51718
thorax -8.32719 0.849767 0.291192
lowerneck -2.32605 -2.85108 1.92033
upperneck -4.77912 -3.77379 1.8471
head -1.07645 -1.94037 0.260037
rclavicle -6.65929e-015 7.55382e-015
rhumerus 18.357 7.19682 -33.7622
rradius 135.821
rwrist -28.2211
rhand -11.4421 -41.1693
rfingers 7.12502
rthumb 14.5946 -70.6358
lclavicle -6.65929e-015 7.55382e-015
lhumerus -45.1103 -6.17195 84.6019
lradius 59.1827
lwrist 5.53897
lhand -12.487 -27.0384
lfingers 7.12502
lthumb 13.5877 2.49821
rfemur 0 0 0
rtibia 0
rfoot 0 0
rtoes 0
lfemur -11.8572 -0.781514 -9.33871
ltibia 27.8804
lfoot -19.4745 9.83258
ltoes -56.5058
247
root -0.849908 18.636 4.48024 0.470635 -2.29084 -3.83961
lowerback 19.3323 1.26093 -0.406468
upperback 2.19969 1.61824 0.562374
thorax -8.47402 0.796448 0.417202
lowerneck -2.52394 -2.87591 1.84242
upperneck -4.8345 -3.80504 1.99635
head -1.05615 -1.95595 0.315453
rclavicle -5.96354e-015 -6.36111e-015
rhumerus 18.3438 6.87237 -33.775
rradius 135.792
rwrist -28.0624
rhand -10.9571 -41.0789
rfingers 7.12502
rthumb 15.0618 -70.511
lclavicle -5.96354e-015 -6.36111e-015
lhumerus -45.2932 -6.19338 84.53
lradius 59.2051
lwrist 5.54163
lhand -12.4411 -26.9374
lfingers 7.12502
lthumb 13.6319 2.59622
rfemur 0 0 0
rtibia 0
rfoot 0 0
rtoes 0
lfemur -11.5389 -0.795266 -9.1456
ltibia 27.7751
lfoot -19.4202 9.44932
ltoes -56.5198
248
root -0.857562 18.635 4.49873 0.407764 -2.21378 -3.80489
lowerback 19.5579 1.25045 -0.420172
upperback 2.05186 1.59593 0.497992
thorax -8.75749 0.784947 0.355097
lowerneck -2.92762 -2.89077 1.83332
upperneck -4.77177 -3.83426 2.06774
head -0.967801 -1.96808 0.330911
rclavicle -2.27608e-014 1.31198e-014
rhumerus 18.2119 6.64655 -33.7738
rradius 135.899
rwrist -27.9687
rhand -10.7867 -41.035
rfingers 7.12502
rthumb 15.2259 -70.4547
lclavicle -2.27608e-014 1.31198e-014
lhumerus -45.4427 -6.264 84.4147
lradius 58.8756
lwrist 6.07204
lhand -12.587 -28.4554
lfingers 7.12502
lthumb 13.4913 1.08761
rfemur 0 0 0
rtibia 0
rfoot 0 0
rtoes 0
lfemur -11.3669 -0.782983 -9.14783
ltibia 27.6876
lfoot -19.4576 9.30012
ltoes -56.5237
249
root -0.858839 18.6348 4.51206 0.480129 -2.25849 -3.69789
lowerback 19.5656 1.2848 -0.484711
upperback 1.86267 1.61977 0.407551
thorax -8.96893 0.797182 0.28482
lowerneck -2.98957 -2.89296 1.90282
upperneck -4.81697 -3.83972 2.04634
head -0.973333 -1.97194 0.312675
rclavicle 3.598e-014 1.19271e-015
rhumerus 18.1222 6.47435 -33.7384
rradius 135.957
rwrist -27.9183
rhand -10.7713 -40.781
rfingers 7.12502
rthumb 15.2408 -70.1996
lclavicle 3.598e-014 1.19271e-015
lhumerus -45.6605 -6.3654 84.3389
lradius 59.2338
lwrist 5.60678
lhand -12.3635 -26.9369
lfingers 7.12502
lthumb 13.7067 2.5917
rfemur 0 0 0
rtibia 0
rfoot 0 0
rtoes 0
lfemur -11.3409 -0.723474 -9.26327
ltibia 27.6026
lfoot -19.5097 9.2788
ltoes -56.5447
